<svg xmlns="http://www.w3.org/2000/svg" viewBox="0 0 50.39 48.04"><defs><style>.cls-1{fill:#9f1100;}</style></defs><g id="Layer_2" data-name="Layer 2"><g id="Layer_1-2" data-name="Layer 1"><path class="cls-1" d="M50.24,48H39.57V31.2a16.5,16.5,0,0,0-.42-3.87,4.45,4.45,0,0,0-3.66-3.77,5.71,5.71,0,0,0-5.55,1.68,6.32,6.32,0,0,0-1.67,4.5V48H17.6V15.72H28.27v4.39a5.13,5.13,0,0,0,.52-.73c2.93-4.08,7-5.12,11.72-4.39a10.63,10.63,0,0,1,8.89,7.84,20.31,20.31,0,0,1,.94,6.07c.1,6.07,0,12.13,0,18.2A3.38,3.38,0,0,0,50.24,48Z"/><path class="cls-1" d="M11.33,48H.76V15.82H11.33Z"/><path class="cls-1" d="M6.1,11.22C1.81,11.22-1,7.56.34,3.69c1-3,4.82-4.5,8.27-3.24a5.43,5.43,0,0,1,3.13,7.22A5.7,5.7,0,0,1,6.1,11.22Z"/></g></g></svg>