<svg width="1440" height="1129" viewBox="0 0 1440 1129" fill="none" xmlns="http://www.w3.org/2000/svg">
<path d="M163 1034.98L207.1 1172H-33.5V423.837L163 1034.98Z" fill="#ECBE03"/>
<path d="M126.1 217.299L163 1034.98L-33.5 423.837V-15.9868H115.6L126.1 217.299Z" fill="#CB9904"/>
<path d="M126.1 217.299L495.7 1172H207.1L163 1034.98L126.1 217.299Z" fill="#B7860F"/>
<path d="M126.1 217.299L495.7 1172H207.1L163 1034.98L126.1 217.299Z" stroke="black"/>
<path d="M1472.6 270.909V707.008L1276.9 332.418L1178.2 143.487L1472.6 270.909Z" fill="#CB9904"/>
<path d="M1472.6 707.008V1172H1350.3L1322.5 854.405L1276.9 332.418L1472.6 707.008Z" fill="#FFCC03"/>
<path d="M1472.6 707.008V1172H1350.3L1322.5 854.405L1276.9 332.418L1472.6 707.008Z" stroke="black"/>
<path d="M1322.5 854.405L1350.3 1172H1140.4L1202.6 626.198L1322.5 854.405Z" fill="#CB9904"/>
<path d="M1322.5 854.405L1350.3 1172H1140.4L1202.6 626.198L1322.5 854.405Z" stroke="black"/>
<path d="M1276.9 332.418L1322.5 854.405L1202.6 626.198L865.2 -15.9868H1094.8L1178.2 143.487L1276.9 332.418Z" fill="#B7860F"/>
<path d="M865.2 -15.9868L1202.6 626.198L1140.4 1172H495.7L126.1 217.299L115.6 -15.9868H865.2Z" fill="#FFCC03"/>
<path d="M865.2 -15.9868L1202.6 626.198L1140.4 1172H495.7L126.1 217.299L115.6 -15.9868H865.2Z" stroke="black"/>
<path d="M1472.6 -15.9868V270.909L1178.2 143.487L1094.8 -15.9868H1472.6Z" fill="#ECBE03"/>
<path d="M-33.5 423.837V-15.9868H115.6H865.2H1094.8H1472.6V270.908V707.007V1172H1350.3H1140.4H495.7H207.1" stroke="black" stroke-miterlimit="10"/>
<path d="M207.1 1172H-33.5V423.837L163 1034.98L207.1 1172Z" stroke="black" stroke-miterlimit="10"/>
<path d="M163 1034.98L126.1 217.299L115.6 -15.9868" stroke="black" stroke-miterlimit="10"/>
<path d="M125.6 215.832L126.1 217.299L495.7 1172" stroke="black" stroke-miterlimit="10"/>
<path d="M1276.9 332.418L1472.6 707.008" stroke="black" stroke-miterlimit="10"/>
<path d="M1094.8 -15.9868L1178.2 143.487L1276.9 332.418" stroke="black" stroke-miterlimit="10"/>
<path d="M1276.9 332.418L1322.5 854.405L1350.3 1172" stroke="black" stroke-miterlimit="10"/>
<path d="M1322.5 854.405L1202.6 626.198L865.2 -15.9868" stroke="black" stroke-miterlimit="10"/>
<path d="M1202.6 626.198L1140.4 1172" stroke="black" stroke-miterlimit="10"/>
<path d="M1472.6 270.909L1178.2 143.487" stroke="black" stroke-miterlimit="10"/>
</svg>
