<svg width="70" height="59" viewBox="0 0 70 59" fill="none" xmlns="http://www.w3.org/2000/svg">
<path d="M1.32213 9.79184C1.47755 9.09752 6.91747 11.1033 6.91747 11.1033C6.91747 11.1033 0.700428 7.47744 1.01128 6.78311C1.32213 6.08879 10.1814 10.949 10.1814 10.949C10.1814 10.949 3.42039 5.70305 3.73124 4.77729C4.50837 4.3144 11.5803 9.7147 12.0465 10.2547C12.5905 10.7948 8.62716 5.24018 9.79286 2C10.6477 4.31441 12.9791 10.4862 13.6785 10.1004C14.4556 9.7147 13.2899 5.00873 15.4659 3.15721C15.4659 3.15721 11.9688 14.3435 25.1024 25.7613C27.5115 27.69 31.4748 32.3959 33.8062 33.3988C36.1376 34.4017 37.5365 34.8646 38.7022 34.9418C39.9456 35.0189 40.645 35.2504 41.3444 35.7904C42.0438 36.3304 43.2872 37.4876 42.8987 38.4905C42.6655 37.5648 39.2461 37.7962 39.1684 37.9505C40.4118 38.0277 42.277 38.8763 44.9192 39.9563C47.5615 41.0364 52.5351 42.5022 56.1876 45.4338C59.8401 48.3654 66.368 50.9112 68 50.0626C67.6114 50.9112 64.7361 51.6055 60.6173 49.3683C62.1715 50.8341 64.8138 53.6885 64.8138 53.6885C64.8138 53.6885 59.8401 50.7569 58.519 49.1368C57.8973 48.7511 58.1304 49.5997 58.9853 51.0655C59.7624 52.5313 60.8504 55 60.8504 55C60.8504 55 58.5967 52.0684 57.3533 50.5255C56.0322 48.9054 54.7111 49.1368 55.8768 51.1426C56.9647 53.1485 56.887 54.2285 56.887 54.2285C56.887 54.2285 55.4882 52.4541 53.8562 50.3712C52.302 48.2882 53.4676 51.3741 53.3122 51.837C53.2345 52.2999 52.1465 51.5284 51.3694 50.9112C50.5923 50.294 51.4471 52.2999 49.5043 50.8341C47.4837 49.3683 47.5615 49.1368 46.2403 49.1368C44.9192 49.1368 45.774 49.5997 44.4529 49.6769C43.1318 49.6769 43.4426 48.4425 42.277 48.674C41.1113 48.9054 41.4221 47.9796 40.4895 47.9796C39.557 47.9796 39.4793 46.6681 37.925 46.8996C36.3708 47.131 37.4587 46.0509 36.4485 46.2052C35.4382 46.3595 35.9822 45.6652 35.1273 45.7424C34.3502 45.8195 34.8165 44.5852 34.0394 44.8166C33.2622 45.048 33.5731 44.3537 32.6405 44.4309C31.708 44.508 32.3297 43.6594 31.6303 43.7366C31.3194 43.1194 30.3868 41.5764 29.532 41.1135C26.0349 41.1907 24.8692 40.5735 23.4704 40.4192C22.6932 42.1164 22.6155 43.7365 22.5378 45.3566C20.2841 45.5109 21.0613 42.7336 21.0613 42.7336C21.0613 42.7336 19.7401 45.1252 19.3516 45.2795C18.8076 44.1994 18.4967 42.8879 18.4967 42.8879C18.4967 42.8879 18.0305 43.968 17.0202 44.508C16.8648 43.5051 16.7093 42.425 16.7093 42.425L14.8442 43.4279C14.8442 43.4279 13.4454 43.3508 14.4556 41.4993C13.1345 41.9622 12.3574 42.5022 12.3574 42.5022C12.3574 42.5022 10.9586 41.7307 11.8134 40.6507C10.1037 41.1136 9.32658 40.6507 10.1037 39.7249C9.01573 40.1106 8.08318 39.262 9.17116 38.1048C8.62717 38.4134 7.0729 37.8734 7.0729 37.8734C7.0729 37.8734 7.22833 37.1019 8.54945 36.099C7.69461 36.099 6.83977 35.0961 6.83977 35.0961C6.83977 35.0961 7.0729 34.2475 8.8603 33.9389C8.31631 34.016 6.76205 32.1645 6.76205 32.1645C6.76205 32.1645 7.38376 31.4702 9.17116 31.5473C8.62717 31.2387 8.31631 30.0044 8.23859 29.3872C11.5803 31.5473 17.0979 32.8588 18.7299 32.7045C20.3618 32.5502 18.5744 32.0102 18.5744 32.0102C18.5744 32.0102 15.7768 31.1616 16.243 30.3901C14.9219 30.6215 15.0774 30.313 15.3882 29.8501C13.3677 30.4673 13.4454 29.5415 13.7562 29.2329C12.4351 29.4643 12.2797 28.5386 12.2797 28.5386C12.2797 28.5386 10.9586 28.1528 11.2694 27.6128C11.5803 27.0728 10.3368 27.6128 10.57 27.1499C10.8031 26.6871 9.32658 27.3042 9.71515 26.6099C10.1814 25.9156 8.8603 26.4556 9.01572 26.0699C9.24886 25.6841 8.16088 25.6841 8.47173 25.1441C8.78259 24.6812 7.53918 24.6041 7.77232 24.0641C8.00546 23.6012 6.21805 23.9098 7.0729 22.9069C6.29576 23.1383 5.82949 22.5211 6.37348 21.7496C5.2855 21.2096 5.36321 20.5924 5.9072 20.2838C4.58608 19.6667 5.13007 19.1266 5.44093 19.0495C4.50837 18.5095 4.50836 18.0466 4.97464 17.738C3.34267 17.3523 3.57581 16.195 4.6638 16.1179C1.32213 14.4978 1.47755 13.5721 5.51863 14.4978C3.80894 13.4949 0.389575 12.5691 1.78841 11.952C3.18725 11.3348 4.74151 13.032 6.21806 12.5691C4.6638 11.7977 1.1667 10.409 1.32213 9.79184Z" fill="#8E3645" stroke="black" stroke-miterlimit="10"/>
</svg>
