<svg xmlns="http://www.w3.org/2000/svg" viewBox="0 0 797.65 342.73"><defs><style>.cls-1{fill:#1a1a1a;}.cls-1,.cls-2,.cls-3{stroke:#1a1a1a;stroke-miterlimit:10;}.cls-1,.cls-2{stroke-width:4px;}.cls-2,.cls-3{fill:#309fe8;}.cls-3{stroke-width:6px;}</style></defs><g id="Layer_2" data-name="Layer 2"><g id="CYCC_LOGO" data-name="CYCC LOGO"><g id="Layer_2-2" data-name="Layer 2"><path class="cls-1" d="M79.11,106.68l-4.2,31.11a27.7,27.7,0,0,0-4.35-.81,42.24,42.24,0,0,0-4.35-.22,38.24,38.24,0,0,0-10.58,1.44,26.68,26.68,0,0,0-8.89,4.38A21.83,21.83,0,0,0,40.59,150a22.39,22.39,0,0,0-2.29,10.39A16.43,16.43,0,0,0,39.54,167,12.3,12.3,0,0,0,43,171.63a14.72,14.72,0,0,0,5.33,2.73,24.34,24.34,0,0,0,6.75.89,30.14,30.14,0,0,0,5.77-.59,51.19,51.19,0,0,0,5.93-1.55,58.45,58.45,0,0,0,5.7-2.21q2.77-1.26,5.1-2.58l-3,34.65a47.66,47.66,0,0,1-6.34,2.62q-3.4,1.14-7,2a69.73,69.73,0,0,1-7.2,1.29,57.61,57.61,0,0,1-6.9.44,45.28,45.28,0,0,1-17.78-3.47A43.86,43.86,0,0,1,5.49,182.07,44.85,44.85,0,0,1,2,164.33a75.27,75.27,0,0,1,3.68-23.77A57.68,57.68,0,0,1,16.48,121a50.64,50.64,0,0,1,17.66-13.27,57.4,57.4,0,0,1,24.27-4.87,70.61,70.61,0,0,1,10.61.82A35.32,35.32,0,0,1,79.11,106.68Z"/><path class="cls-1" d="M165.91,139.27a49.81,49.81,0,0,1-1,10.43,31.28,31.28,0,0,1-3.19,8.59,30.86,30.86,0,0,1-5.63,7.22,49.69,49.69,0,0,1-8.32,6.35l17.85,31.26-33.75,6.49L120.3,178.2l-9.3.29-1.35,30.67H77.4q.38-16.8.71-33.47t.79-33.47q.15-8.49.3-16.81t.6-16.82a102.33,102.33,0,0,1,10.35-3.17,100.89,100.89,0,0,1,10.24-2q5.13-.7,10.43-1t10.83-.26a58.81,58.81,0,0,1,16.54,2.33,43.16,43.16,0,0,1,14.14,7,35.19,35.19,0,0,1,9.87,11.58A33.74,33.74,0,0,1,165.91,139.27Zm-33.6,2.36a17.67,17.67,0,0,0-.87-5.68,12.36,12.36,0,0,0-2.55-4.46,11.51,11.51,0,0,0-4.2-3,15,15,0,0,0-5.89-1.07,23.24,23.24,0,0,0-2.92.18,21,21,0,0,0-2.78.56l-1.2,27.42h1.8a27.34,27.34,0,0,0,6.57-.81,19.85,19.85,0,0,0,6-2.5,14.11,14.11,0,0,0,4.35-4.35A11.63,11.63,0,0,0,132.31,141.63Z"/><path class="cls-1" d="M259.84,204l-37.21,4.72-4.5-16.66H201l-3.75,16.66L159,205l29.86-98.2,41.7-2.07Zm-44.41-34.5-5.7-25.66-5.55,25.66Z"/><path class="cls-1" d="M324.21,129.39,289.85,175H323l-.45,31.26-66.91,2.66-3-28.9,39.15-50.14L256,132.48l-.3-29.64h67.21Z"/><path class="cls-1" d="M420.08,110.51l-41.25,56.63-1.95,46.15H341.32l.9-45.86-21.45-54.71L359,108l6,31.86L384.08,108Z"/><path class="cls-1" d="M612.37,128.35q0,5.46-.52,12t-1.73,13.57q-1.2,7-3.11,14.19A100.16,100.16,0,0,1,602.25,182a81.69,81.69,0,0,1-6.64,12.42,49.3,49.3,0,0,1-8.7,10.1,38.35,38.35,0,0,1-11,6.78,35.47,35.47,0,0,1-13.5,2.47A38.07,38.07,0,0,1,547.3,211a34,34,0,0,1-11-7.45,39.49,39.49,0,0,1-7.5-10.91,67.45,67.45,0,0,1-4.57-13.2A98.61,98.61,0,0,1,522,165.18q-.65-7.26-.64-14a202.9,202.9,0,0,1,1.05-20.61q1-10.27,3-20.53l35.11,1.33q-2,11.56-3.49,23.26a188,188,0,0,0-1.46,23.48c0,.84,0,2.08.11,3.73s.21,3.49.41,5.52.49,4.13.86,6.27a34.48,34.48,0,0,0,1.54,5.86,15.09,15.09,0,0,0,2.36,4.35,4.14,4.14,0,0,0,3.27,1.7,5.06,5.06,0,0,0,3.9-2,18.92,18.92,0,0,0,3-5.42,54.45,54.45,0,0,0,2.28-7.81q1-4.42,1.65-9.22c.45-3.19.82-6.39,1.09-9.58s.5-6.17.68-8.93.28-5.18.33-7.29.08-3.69.08-4.72q0-5.76-.19-11.47t-.56-11.39h35.1Q612.37,117.88,612.37,128.35Z"/><path class="cls-1" d="M703.07,195.3a35.15,35.15,0,0,1-8.7,7.6,58.13,58.13,0,0,1-11.1,5.38,72.46,72.46,0,0,1-12.15,3.21,70.33,70.33,0,0,1-11.85,1.06,51.25,51.25,0,0,1-20-3.83,47.86,47.86,0,0,1-15.79-10.58,48.86,48.86,0,0,1-10.39-15.89,51.35,51.35,0,0,1-3.75-19.68,66.88,66.88,0,0,1,7.24-30.27,61,61,0,0,1,8.51-12.54,54.32,54.32,0,0,1,25.36-16.25,55.6,55.6,0,0,1,16.2-2.29q3.23,0,6.9.26c2.45.17,4.89.47,7.31.88a52,52,0,0,1,7.09,1.74,32.18,32.18,0,0,1,6.3,2.73L692.12,135a39,39,0,0,0-8.66-2.1,70.85,70.85,0,0,0-8.74-.55,34.09,34.09,0,0,0-11.21,1.8,27.11,27.11,0,0,0-9.08,5.2,24.42,24.42,0,0,0-6.11,8.26,25.84,25.84,0,0,0-2.25,11,26.12,26.12,0,0,0,1,7.41,18.83,18.83,0,0,0,3.19,6.34,16.28,16.28,0,0,0,5.32,4.47,15.52,15.52,0,0,0,7.39,1.69,24.55,24.55,0,0,0,5.89-.74,13,13,0,0,0,5.21-2.5l.3-5.75-18-.3.9-22.12q11.17-.36,22.35-.63t22.5-.7Z"/><path class="cls-1" d="M795.65,158.29a52.59,52.59,0,0,1-1.57,12.94,50.69,50.69,0,0,1-4.54,11.68,49,49,0,0,1-7.2,10,45.92,45.92,0,0,1-9.53,7.77,46.51,46.51,0,0,1-11.51,5,49.3,49.3,0,0,1-26.07.11,49.2,49.2,0,0,1-11.44-4.75,46,46,0,0,1-17-17,49.3,49.3,0,0,1-4.73-11.32,46.84,46.84,0,0,1-1.68-12.6A50.42,50.42,0,0,1,713.66,126a47.06,47.06,0,0,1,9.42-7.88,45.23,45.23,0,0,1,11.29-5.17,44.2,44.2,0,0,1,12.82-1.84A56.8,56.8,0,0,1,767,114.42a43.19,43.19,0,0,1,15.31,9.47,42.37,42.37,0,0,1,9.82,14.9A52.05,52.05,0,0,1,795.65,158.29Zm-33.3,1.92a20.58,20.58,0,0,0-.94-6.16,16.93,16.93,0,0,0-2.74-5.31,14,14,0,0,0-4.46-3.76,12.69,12.69,0,0,0-6.12-1.44,15.08,15.08,0,0,0-6.3,1.26,14.38,14.38,0,0,0-4.76,3.42,14.94,14.94,0,0,0-3,5.09,18,18,0,0,0-1,6.16,22.07,22.07,0,0,0,.9,6.19,18.33,18.33,0,0,0,2.7,5.61,14.2,14.2,0,0,0,4.47,4,12.07,12.07,0,0,0,6.18,1.55,14.2,14.2,0,0,0,11.11-5.05,17,17,0,0,0,3-5.35A18.91,18.91,0,0,0,762.35,160.21Z"/><path class="cls-1" d="M180.69,233.68l-4.2,31.11a27.7,27.7,0,0,0-4.35-.81,42.24,42.24,0,0,0-4.35-.22,38.19,38.19,0,0,0-10.58,1.44,26.68,26.68,0,0,0-8.89,4.38,21.61,21.61,0,0,0-6.15,7.38,22.26,22.26,0,0,0-2.29,10.39,16.26,16.26,0,0,0,1.24,6.64,12.2,12.2,0,0,0,3.49,4.64,14.67,14.67,0,0,0,5.32,2.73,24.34,24.34,0,0,0,6.75.89,30.24,30.24,0,0,0,5.78-.59,51.19,51.19,0,0,0,5.93-1.55,58.45,58.45,0,0,0,5.7-2.21q2.78-1.26,5.1-2.58l-3,34.65a48.22,48.22,0,0,1-6.34,2.62c-2.28.76-4.61,1.42-7,2a70.4,70.4,0,0,1-7.21,1.29,57.61,57.61,0,0,1-6.9.44A45.23,45.23,0,0,1,131,332.84a43.86,43.86,0,0,1-23.89-23.77,44.85,44.85,0,0,1-3.49-17.74,75.55,75.55,0,0,1,3.67-23.77A57.85,57.85,0,0,1,118.05,248a50.59,50.59,0,0,1,17.67-13.27A57.32,57.32,0,0,1,160,229.84a70.74,70.74,0,0,1,10.62.82A35.42,35.42,0,0,1,180.69,233.68Z"/><path class="cls-1" d="M274.16,331,237,335.72l-4.5-16.66h-17.1l-3.76,16.66L173.35,332l29.85-98.2,41.71-2.07Zm-44.4-34.5-5.7-25.66-5.55,25.66Z"/><path class="cls-1" d="M357.81,266.27a49.15,49.15,0,0,1-1,10.43A30.05,30.05,0,0,1,348,292.51a49.79,49.79,0,0,1-8.33,6.35l17.85,31.26-33.75,6.49L312.21,305.2l-9.3.29-1.36,30.67H269.3q.38-16.8.71-33.47t.79-33.47q.15-8.49.3-16.81t.6-16.82a97.49,97.49,0,0,1,20.59-5.12c3.43-.47,6.9-.79,10.43-1s7.14-.26,10.84-.26a58.92,58.92,0,0,1,16.54,2.33,43.35,43.35,0,0,1,14.14,7,35.17,35.17,0,0,1,9.86,11.58A33.63,33.63,0,0,1,357.81,266.27Zm-33.6,2.36a18,18,0,0,0-.86-5.68,12.53,12.53,0,0,0-2.56-4.46,11.51,11.51,0,0,0-4.2-3,14.94,14.94,0,0,0-5.88-1.07,23.4,23.4,0,0,0-2.93.18,20.9,20.9,0,0,0-2.77.56l-1.2,27.42h1.8a27.32,27.32,0,0,0,6.56-.81,19.85,19.85,0,0,0,6-2.5,14.11,14.11,0,0,0,4.35-4.35A11.54,11.54,0,0,0,324.21,268.63Z"/><path class="cls-1" d="M455.65,233.68l-4.2,31.11a27.7,27.7,0,0,0-4.35-.81,42.24,42.24,0,0,0-4.35-.22,38.24,38.24,0,0,0-10.58,1.44,26.54,26.54,0,0,0-8.88,4.38,21.75,21.75,0,0,0-6.16,7.38,22.39,22.39,0,0,0-2.28,10.39,16.43,16.43,0,0,0,1.23,6.64,12.3,12.3,0,0,0,3.49,4.64,14.72,14.72,0,0,0,5.33,2.73,24.34,24.34,0,0,0,6.75.89,30.14,30.14,0,0,0,5.77-.59,51.19,51.19,0,0,0,5.93-1.55,58.45,58.45,0,0,0,5.7-2.21q2.77-1.26,5.1-2.58l-3,34.65a47.66,47.66,0,0,1-6.34,2.62q-3.4,1.14-7,2a69.73,69.73,0,0,1-7.2,1.29,57.61,57.61,0,0,1-6.9.44,45.28,45.28,0,0,1-17.78-3.47A43.86,43.86,0,0,1,382,309.07a44.85,44.85,0,0,1-3.49-17.74,75.55,75.55,0,0,1,3.68-23.77A57.85,57.85,0,0,1,393,248a50.64,50.64,0,0,1,17.66-13.27A57.4,57.4,0,0,1,435,229.84a70.61,70.61,0,0,1,10.61.82A35.32,35.32,0,0,1,455.65,233.68Z"/><path class="cls-1" d="M520.47,295.32l-3.15,32.73-63.15,4.87q.45-25.74,1-51.17t1.39-51.17h39q-1.72,16.15-3.3,32.26T490,295.32q3.53.14,7,.14h7q4.2,0,8.25-.07T520.47,295.32Z"/><path class="cls-1" d="M607.87,255.35q0,5.46-.52,12t-1.73,13.57q-1.2,7-3.11,14.19A100.16,100.16,0,0,1,597.75,309a81.69,81.69,0,0,1-6.64,12.42,49.3,49.3,0,0,1-8.7,10.1,38.35,38.35,0,0,1-11,6.78,35.47,35.47,0,0,1-13.5,2.47A38.07,38.07,0,0,1,542.8,338a34,34,0,0,1-11-7.45,39.49,39.49,0,0,1-7.5-10.91,67.45,67.45,0,0,1-4.57-13.2,98.61,98.61,0,0,1-2.29-14.23q-.65-7.26-.64-14a202.9,202.9,0,0,1,1.05-20.61q1-10.28,3-20.53L556,238.4q-2,11.57-3.49,23.26A188,188,0,0,0,551,285.14c0,.84,0,2.08.11,3.73s.21,3.49.41,5.52.49,4.13.86,6.27a34.48,34.48,0,0,0,1.54,5.86,15.09,15.09,0,0,0,2.36,4.35,4.14,4.14,0,0,0,3.27,1.7,5.06,5.06,0,0,0,3.9-2,18.92,18.92,0,0,0,3-5.42,54.45,54.45,0,0,0,2.28-7.81q1-4.43,1.65-9.22c.45-3.19.82-6.39,1.09-9.58s.5-6.17.68-8.93.28-5.18.33-7.29.08-3.69.08-4.72q0-5.76-.19-11.47t-.56-11.39H607Q607.87,244.88,607.87,255.35Z"/><path class="cls-1" d="M695.35,311.09a22.65,22.65,0,0,1-2.29,10.55,23.36,23.36,0,0,1-6.11,7.52,33.06,33.06,0,0,1-8.82,5,63.45,63.45,0,0,1-10.38,3.06,80.38,80.38,0,0,1-10.84,1.47q-5.45.38-10.17.37t-9.64-.33q-5-.33-9.93-1.14a86.64,86.64,0,0,1-9.76-2.18,55.73,55.73,0,0,1-9.07-3.43l-.15-95a92.18,92.18,0,0,1,8.92-3.06c3.15-.91,6.37-1.67,9.64-2.29s6.54-1.08,9.79-1.4,6.4-.48,9.45-.48a89.47,89.47,0,0,1,10.77.67,60.29,60.29,0,0,1,10.46,2.21,46.6,46.6,0,0,1,9.38,4,30.29,30.29,0,0,1,7.61,6.08,26.43,26.43,0,0,1,5.1,8.41,30.63,30.63,0,0,1,1.84,11.06A24.42,24.42,0,0,1,690,270,21,21,0,0,1,681,281.42a23.67,23.67,0,0,1-7.27,3,32.86,32.86,0,0,1,8.88,3.69,25.79,25.79,0,0,1,11.18,13.71A27.57,27.57,0,0,1,695.35,311.09Zm-48.76-18a19.31,19.31,0,0,0-4.2.45l-.3,16.81c.75.14,1.49.28,2.22.4a12,12,0,0,0,2.13.19,20,20,0,0,0,3.45-.33,10.5,10.5,0,0,0,3.53-1.33,8.47,8.47,0,0,0,2.74-2.69,8.28,8.28,0,0,0,1.08-4.5,8.66,8.66,0,0,0-1.08-4.57,8.55,8.55,0,0,0-2.67-2.77,9.52,9.52,0,0,0-3.45-1.32A19.14,19.14,0,0,0,646.59,293.1Zm10.65-24a7,7,0,0,0-.9-3.65,8.12,8.12,0,0,0-2.21-2.47,8.81,8.81,0,0,0-2.85-1.4,9.82,9.82,0,0,0-2.74-.44,9.62,9.62,0,0,0-2.92.44,26.38,26.38,0,0,0-2.78,1L642.39,279a37.76,37.76,0,0,0,4.28-.3,17.37,17.37,0,0,0,4.91-1.29,10.38,10.38,0,0,0,4-2.95A8,8,0,0,0,657.24,269.07Z"/><polygon class="cls-1" points="470.78 209.66 461.09 106.63 404.78 43.78 446.8 12.93 497.05 81.12 536.55 12.71 578.41 54.87 528.99 104.55 519.61 209.66 470.78 209.66"/></g><g id="Layer_3" data-name="Layer 3"><path class="cls-2" d="M85.15,96.75,81,127.87a25.83,25.83,0,0,0-4.28-.82c-1.42-.14-2.85-.22-4.27-.22a37,37,0,0,0-10.4,1.44,26,26,0,0,0-8.74,4.39,21.52,21.52,0,0,0-6,7.37A22.68,22.68,0,0,0,45,150.43a16.38,16.38,0,0,0,1.22,6.63,12.36,12.36,0,0,0,3.42,4.65,14.39,14.39,0,0,0,5.24,2.73,23.55,23.55,0,0,0,6.64.88,29.14,29.14,0,0,0,5.67-.59,47.72,47.72,0,0,0,5.83-1.55,55.19,55.19,0,0,0,5.6-2.21q2.73-1.26,5-2.58L80.73,193a45.48,45.48,0,0,1-6.24,2.62c-2.23.76-4.53,1.43-6.89,2a62.72,62.72,0,0,1-7.08,1.29,53.75,53.75,0,0,1-6.78.44,44,44,0,0,1-31.56-13,44.47,44.47,0,0,1-9.4-14.27,45.7,45.7,0,0,1-3.43-17.73A76.77,76.77,0,0,1,13,130.63a58.07,58.07,0,0,1,10.61-19.58A50,50,0,0,1,41,97.78,55.52,55.52,0,0,1,64.8,92.92a69.54,69.54,0,0,1,10.43.81A34.61,34.61,0,0,1,85.15,96.75Z"/><path class="cls-2" d="M170.47,129.34a49.84,49.84,0,0,1-1,10.43,31.39,31.39,0,0,1-3.13,8.59,30.77,30.77,0,0,1-5.53,7.23,49.63,49.63,0,0,1-8.18,6.34l17.54,31.26L137,199.68l-11.35-31.41-9.14.29-1.33,30.68H83.47q.36-16.81.7-33.48t.77-33.47q.15-8.47.3-16.81t.59-16.81a95.28,95.28,0,0,1,20.23-5.13q5.06-.69,10.25-1T127,92.33a56.9,56.9,0,0,1,16.25,2.32,42.15,42.15,0,0,1,13.9,7,34.81,34.81,0,0,1,9.7,11.57A34.23,34.23,0,0,1,170.47,129.34Zm-33,2.36a18.25,18.25,0,0,0-.85-5.68,12.58,12.58,0,0,0-2.51-4.46,11.57,11.57,0,0,0-4.13-3,14.47,14.47,0,0,0-5.78-1.07,22.47,22.47,0,0,0-2.88.19,20.62,20.62,0,0,0-2.73.55l-1.18,27.43h1.77a26.82,26.82,0,0,0,6.45-.81,19.18,19.18,0,0,0,5.9-2.51,13.89,13.89,0,0,0,4.28-4.35A11.77,11.77,0,0,0,137.44,131.7Z"/><path class="cls-2" d="M262.79,194.08l-36.57,4.71-4.42-16.66H205l-3.69,16.66-37.6-3.68L193,96.9l41-2.07Zm-43.65-34.51-5.6-25.66-5.46,25.66Z"/><path class="cls-2" d="M326.07,119.46,292.3,165h32.59l-.45,31.26-65.76,2.65-3-28.9,38.48-50.14L259,122.56l-.29-29.64h66.06Z"/><path class="cls-2" d="M420.31,100.58l-40.56,56.63-1.91,46.16H342.89l.88-45.87-21.08-54.7,37.6-4.72,5.9,31.85,18.73-31.85Z"/><path class="cls-2" d="M609.32,118.43q0,5.46-.52,12T607.1,144q-1.17,7-3.06,14.2A100.65,100.65,0,0,1,599.36,172a82.09,82.09,0,0,1-6.52,12.42,49,49,0,0,1-8.56,10.1,37.79,37.79,0,0,1-10.8,6.79,34.51,34.51,0,0,1-13.27,2.47A36.69,36.69,0,0,1,545.35,201a33.36,33.36,0,0,1-10.8-7.44,39.59,39.59,0,0,1-7.37-10.92,68.09,68.09,0,0,1-4.5-13.19,101.63,101.63,0,0,1-2.25-14.23q-.61-7.26-.62-14a205.46,205.46,0,0,1,1-20.6q1-10.29,2.95-20.54l34.5,1.33q-2,11.58-3.42,23.26a191.83,191.83,0,0,0-1.44,23.48c0,.84,0,2.08.11,3.73s.21,3.49.4,5.53.48,4.13.85,6.27a34.77,34.77,0,0,0,1.51,5.86,15.06,15.06,0,0,0,2.33,4.35,4,4,0,0,0,3.2,1.69,4.94,4.94,0,0,0,3.84-2,19,19,0,0,0,3-5.42,54.78,54.78,0,0,0,2.25-7.82q1-4.42,1.62-9.22c.45-3.19.8-6.39,1.07-9.58s.49-6.17.67-8.92.28-5.19.33-7.3.07-3.69.07-4.72c0-3.83-.06-7.66-.18-11.47s-.31-7.6-.56-11.39h34.51Q609.32,108,609.32,118.43Z"/><path class="cls-2" d="M698.47,185.38a34.52,34.52,0,0,1-8.55,7.59A56.27,56.27,0,0,1,679,198.35a70.43,70.43,0,0,1-23.59,4.28,49.64,49.64,0,0,1-19.69-3.84,46.86,46.86,0,0,1-15.52-10.58A48.78,48.78,0,0,1,610,172.32a52,52,0,0,1-3.68-19.68,67.74,67.74,0,0,1,7.11-30.27,61.42,61.42,0,0,1,8.37-12.53A53.86,53.86,0,0,1,633,100a52.66,52.66,0,0,1,13.71-6.42,54.1,54.1,0,0,1,15.93-2.29q3.17,0,6.78.26c2.41.18,4.8.47,7.19.89a51.06,51.06,0,0,1,7,1.73,32.64,32.64,0,0,1,6.19,2.73l-2.07,28.16a37.71,37.71,0,0,0-8.51-2.1,68.48,68.48,0,0,0-8.59-.55,32.75,32.75,0,0,0-11,1.81,26.42,26.42,0,0,0-8.93,5.19,24.5,24.5,0,0,0-6,8.26,26.22,26.22,0,0,0-2.22,11,26.58,26.58,0,0,0,1,7.41,19.09,19.09,0,0,0,3.13,6.34,16.12,16.12,0,0,0,5.23,4.46,15,15,0,0,0,7.27,1.69,24.15,24.15,0,0,0,5.78-.73,12.71,12.71,0,0,0,5.13-2.51l.29-5.75-17.69-.3.88-22.11q11-.37,22-.63t22.12-.7Z"/><path class="cls-2" d="M789.46,148.36a53.5,53.5,0,0,1-1.54,12.94A51,51,0,0,1,783.46,173a48.83,48.83,0,0,1-7.08,10,45.37,45.37,0,0,1-9.37,7.78,45.32,45.32,0,0,1-24.29,6.85,46.32,46.32,0,0,1-12.64-1.69,48,48,0,0,1-11.25-4.76,44.88,44.88,0,0,1-9.47-7.37,45.93,45.93,0,0,1-7.23-9.58,49.25,49.25,0,0,1-4.64-11.32,47.31,47.31,0,0,1-1.66-12.61,50.92,50.92,0,0,1,1.55-12.57,50.47,50.47,0,0,1,11.5-21.64,46.08,46.08,0,0,1,9.25-7.89,44.62,44.62,0,0,1,11.1-5.16,42.46,42.46,0,0,1,12.61-1.85,55,55,0,0,1,19.5,3.32A41.36,41.36,0,0,1,786,128.86,53.14,53.14,0,0,1,789.46,148.36Zm-32.73,1.92a20.94,20.94,0,0,0-.92-6.16,17,17,0,0,0-2.69-5.31,14,14,0,0,0-4.39-3.76,12.39,12.39,0,0,0-6-1.43,14.56,14.56,0,0,0-6.19,1.25,14.33,14.33,0,0,0-4.69,3.43,15,15,0,0,0-3,5.09,18.21,18.21,0,0,0-1,6.15,22.48,22.48,0,0,0,.88,6.2,18.42,18.42,0,0,0,2.66,5.6,14,14,0,0,0,4.38,4,11.66,11.66,0,0,0,6.09,1.55,13.9,13.9,0,0,0,6.23-1.36,14.1,14.1,0,0,0,4.68-3.69,16.93,16.93,0,0,0,3-5.34A19.53,19.53,0,0,0,756.73,150.28Z"/><path class="cls-2" d="M185,223.75l-4.13,31.12a25.71,25.71,0,0,0-4.27-.82c-1.43-.14-2.85-.22-4.28-.22a36.89,36.89,0,0,0-10.39,1.44,25.77,25.77,0,0,0-8.74,4.39,21.54,21.54,0,0,0-6.05,7.37,22.68,22.68,0,0,0-2.25,10.4,16.56,16.56,0,0,0,1.22,6.63,12.28,12.28,0,0,0,3.43,4.65,14.34,14.34,0,0,0,5.23,2.73,23.6,23.6,0,0,0,6.64.88,29.24,29.24,0,0,0,5.68-.59,48.05,48.05,0,0,0,5.82-1.55,53.4,53.4,0,0,0,5.6-2.21q2.73-1.26,5-2.58l-3,34.65a45.35,45.35,0,0,1-6.23,2.62c-2.24.76-4.54,1.43-6.89,2a62.72,62.72,0,0,1-7.08,1.29,53.78,53.78,0,0,1-6.79.44,43.66,43.66,0,0,1-41-27.24,45.51,45.51,0,0,1-3.43-17.73,76.77,76.77,0,0,1,3.61-23.78,58.27,58.27,0,0,1,10.62-19.58,50,50,0,0,1,17.36-13.27,55.58,55.58,0,0,1,23.85-4.86,69.67,69.67,0,0,1,10.44.81A34.64,34.64,0,0,1,185,223.75Z"/><path class="cls-2" d="M276.87,321.08l-36.57,4.71-4.42-16.66H219.07l-3.69,16.66-37.6-3.68,29.35-98.21,41-2.07Zm-43.64-34.51-5.61-25.66-5.45,25.66Z"/><path class="cls-2" d="M359.1,256.34a49.84,49.84,0,0,1-1,10.43,31.39,31.39,0,0,1-3.13,8.59,30.77,30.77,0,0,1-5.53,7.23,49.31,49.31,0,0,1-8.19,6.34l17.55,31.26-33.18,6.49-11.35-31.41-9.14.29-1.33,30.68H272.09q.38-16.82.71-33.48t.77-33.47q.15-8.48.29-16.81t.59-16.81a95.57,95.57,0,0,1,20.24-5.13q5.06-.69,10.25-1t10.66-.25a56.9,56.9,0,0,1,16.25,2.32,42.15,42.15,0,0,1,13.9,7,34.93,34.93,0,0,1,9.7,11.57A34.23,34.23,0,0,1,359.1,256.34Zm-33,2.36a18.25,18.25,0,0,0-.85-5.68,12.58,12.58,0,0,0-2.51-4.46,11.66,11.66,0,0,0-4.13-2.95,14.52,14.52,0,0,0-5.79-1.07,22.43,22.43,0,0,0-2.87.19,20.3,20.3,0,0,0-2.73.55L306,272.71h1.77a26.88,26.88,0,0,0,6.45-.81,19.29,19.29,0,0,0,5.9-2.51,14,14,0,0,0,4.28-4.35A11.77,11.77,0,0,0,326.07,258.7Z"/><path class="cls-2" d="M455.27,223.75l-4.13,31.12a25.83,25.83,0,0,0-4.28-.82c-1.42-.14-2.85-.22-4.27-.22a37,37,0,0,0-10.4,1.44,25.86,25.86,0,0,0-8.74,4.39,21.52,21.52,0,0,0-6,7.37,22.68,22.68,0,0,0-2.25,10.4,16.56,16.56,0,0,0,1.21,6.63,12.49,12.49,0,0,0,3.43,4.65,14.39,14.39,0,0,0,5.24,2.73,23.48,23.48,0,0,0,6.63.88,29.24,29.24,0,0,0,5.68-.59,47.72,47.72,0,0,0,5.83-1.55,55.19,55.19,0,0,0,5.6-2.21q2.73-1.26,5-2.58l-3,34.65a44.83,44.83,0,0,1-6.23,2.62c-2.23.76-4.53,1.43-6.89,2a62.72,62.72,0,0,1-7.08,1.29,53.75,53.75,0,0,1-6.78.44,43.66,43.66,0,0,1-41-27.24,45.51,45.51,0,0,1-3.43-17.73,77.06,77.06,0,0,1,3.61-23.78,58.27,58.27,0,0,1,10.62-19.58,50,50,0,0,1,17.37-13.27,55.52,55.52,0,0,1,23.85-4.86,69.54,69.54,0,0,1,10.43.81A34.71,34.71,0,0,1,455.27,223.75Z"/><path class="cls-2" d="M519,285.39l-3.09,32.74L453.81,323q.44-25.73,1-51.17t1.37-51.17H494.5q-1.69,16.15-3.24,32.26t-2.21,32.48c2.31.1,4.59.15,6.86.15h6.85c2.75,0,5.46,0,8.11-.08S516.23,285.39,519,285.39Z"/><path class="cls-2" d="M604.89,245.43q0,5.46-.51,12T602.68,271q-1.18,7-3.06,14.2A100.65,100.65,0,0,1,594.94,299a82.13,82.13,0,0,1-6.53,12.42,48.68,48.68,0,0,1-8.55,10.1,37.79,37.79,0,0,1-10.8,6.79,34.55,34.55,0,0,1-13.27,2.47A36.63,36.63,0,0,1,540.93,328a33.36,33.36,0,0,1-10.8-7.44,39.37,39.37,0,0,1-7.37-10.92,68.09,68.09,0,0,1-4.5-13.19A101.63,101.63,0,0,1,516,282.26q-.63-7.26-.63-14a205.47,205.47,0,0,1,1-20.6q1-10.29,2.94-20.54l34.51,1.33q-2,11.58-3.43,23.26A191.83,191.83,0,0,0,549,275.21c0,.84,0,2.08.12,3.73s.2,3.49.4,5.53.48,4.13.85,6.27a34.77,34.77,0,0,0,1.51,5.86A15.05,15.05,0,0,0,554.2,301a4,4,0,0,0,3.21,1.69,4.93,4.93,0,0,0,3.83-2,19,19,0,0,0,3-5.42,54.78,54.78,0,0,0,2.25-7.82q1-4.42,1.62-9.22c.44-3.19.8-6.39,1.07-9.58s.49-6.17.66-8.92.29-5.19.34-7.3.07-3.69.07-4.72c0-3.83-.06-7.66-.19-11.47s-.3-7.6-.55-11.39H604Q604.9,235,604.89,245.43Z"/><path class="cls-2" d="M690.87,301.17a23,23,0,0,1-2.24,10.54,23.36,23.36,0,0,1-6,7.52,32.21,32.21,0,0,1-8.67,5,60.85,60.85,0,0,1-10.21,3.06,79,79,0,0,1-10.65,1.48c-3.57.24-6.89.37-10,.37s-6.21-.11-9.48-.34-6.52-.6-9.77-1.14a84.54,84.54,0,0,1-9.58-2.17,55,55,0,0,1-8.92-3.43l-.15-95a90,90,0,0,1,8.77-3.06q4.65-1.37,9.48-2.28c3.22-.62,6.42-1.08,9.62-1.4s6.29-.48,9.29-.48a86.23,86.23,0,0,1,10.58.66,58.59,58.59,0,0,1,10.29,2.21,45.36,45.36,0,0,1,9.21,4,30.32,30.32,0,0,1,7.49,6.08,26.77,26.77,0,0,1,5,8.41,31.32,31.32,0,0,1,1.81,11.06,25,25,0,0,1-1.18,7.74,21.69,21.69,0,0,1-3.39,6.49,20.91,20.91,0,0,1-5.39,4.9,23.34,23.34,0,0,1-7.15,3,31.75,31.75,0,0,1,8.74,3.68,25.64,25.64,0,0,1,11,13.72A28.06,28.06,0,0,1,690.87,301.17Zm-47.92-18a19.29,19.29,0,0,0-4.13.44l-.29,16.81c.73.15,1.46.28,2.17.41a12.59,12.59,0,0,0,2.1.18,19.38,19.38,0,0,0,3.4-.33,9.83,9.83,0,0,0,3.46-1.33,8.23,8.23,0,0,0,2.69-2.69,8.37,8.37,0,0,0,1.07-4.5,8.78,8.78,0,0,0-1.07-4.57,8.19,8.19,0,0,0-2.62-2.76,9.08,9.08,0,0,0-3.39-1.33A19.37,19.37,0,0,0,643,283.18Zm10.47-24a7.23,7.23,0,0,0-.88-3.65,8.29,8.29,0,0,0-2.18-2.47,8.87,8.87,0,0,0-2.8-1.4,9.93,9.93,0,0,0-2.69-.44,9.67,9.67,0,0,0-2.88.44,28.88,28.88,0,0,0-2.73,1L638.82,269a38.43,38.43,0,0,0,4.2-.29,17.43,17.43,0,0,0,4.83-1.29,10.45,10.45,0,0,0,3.95-2.95A8.14,8.14,0,0,0,653.42,259.14Z"/><polygon class="cls-2" points="466.2 203.73 456.68 100.7 396.14 42.24 437.51 7.3 490.37 78.11 532.86 3.25 576.65 46.18 523.42 98.62 514.2 203.73 466.2 203.73"/><line class="cls-3" x1="490.37" y1="75.59" x2="490.37" y2="202.85"/></g></g></g></svg>