<svg xmlns="http://www.w3.org/2000/svg" viewBox="0 0 521.64 269.63"><defs><style>.cls-1{fill:#fff;}.cls-2{fill:#b43200;}</style></defs><g id="Layer_2" data-name="Layer 2"><g id="Yu_copy" data-name="Yu copy"><path class="cls-1" d="M93.41,227.22C81,227.1,71.15,217,71,204.21c0,0-.07-98.07-.07-98.07,0-3.21-3.28-5.81-6-7.42l-54.71-33A20.76,20.76,0,0,1,.62,52.5,23.19,23.19,0,0,1,3.73,34.58L19.46,10.36A22.68,22.68,0,0,1,38.55,0,23,23,0,0,1,48.4,2.24,14.36,14.36,0,0,1,50,3.13l63.7,41.41c19.69,11.47,29.72,32,29.8,61l.22,99.19A22.72,22.72,0,0,1,121,227.49Z"/><path class="cls-1" d="M147.49,227.71a22.72,22.72,0,0,1-22.73-22.77l.21-99.18c.09-29,10.11-49.54,29.8-61L218.48,3.34a13.41,13.41,0,0,1,1.57-.88A22.76,22.76,0,0,1,249,10.58l15.74,24.21a23.26,23.26,0,0,1,3.11,17.93A20.74,20.74,0,0,1,258.22,66l-54.7,33c-2.75,1.61-6,4.2-6,7.42,0,0-.07,98-.07,98.07-.12,12.78-9.95,22.89-22.38,23Z"/><path class="cls-1" d="M167.68,120.74h94.89a22.8,22.8,0,0,1,22.8,22.8v18.23a31.91,31.91,0,0,1-31.91,31.91h-85a23.56,23.56,0,0,1-23.56-23.56V143.56A22.82,22.82,0,0,1,167.68,120.74Z" transform="translate(372.33 -57.9) rotate(90)"/><path class="cls-1" d="M221.74,121h94.89a22.8,22.8,0,0,1,22.8,22.8v27.11a23,23,0,0,1-23,23H222.48a23.56,23.56,0,0,1-23.56-23.56V143.78A22.82,22.82,0,0,1,221.74,121Z" transform="translate(426.61 -111.75) rotate(90)"/><path class="cls-1" d="M275.82,120.74h94.89a22.8,22.8,0,0,1,22.8,22.8v18.25a31.89,31.89,0,0,1-31.89,31.89H284.89A31.89,31.89,0,0,1,253,161.79V143.56A22.82,22.82,0,0,1,275.82,120.74Z" transform="translate(480.47 -166.05) rotate(90)"/><path class="cls-1" d="M310.05,141.62h126.2a32.05,32.05,0,0,1,32.05,32.05V190a24.58,24.58,0,0,1-24.58,24.58H310.92a25.21,25.21,0,0,1-25.21-25.21V166A24.34,24.34,0,0,1,310.05,141.62Z" transform="translate(555.1 -198.92) rotate(90)"/><path class="cls-1" d="M383.74,120.91h94.89a22.8,22.8,0,0,1,22.8,22.8V162a31.89,31.89,0,0,1-31.89,31.89H392.67a31.75,31.75,0,0,1-31.75-31.75V143.73a22.82,22.82,0,0,1,22.82-22.82Z" transform="translate(588.55 -273.8) rotate(90)"/><path class="cls-1" d="M446.92,120.41h76.54a32,32,0,0,1,32,32v17.94a23,23,0,0,1-23,23H438.48a23.56,23.56,0,0,1-23.56-23.56V152.42a32,32,0,0,1,32-32Z" transform="translate(642.06 -328.3) rotate(90)"/><path class="cls-1" d="M315.08,202.93h15.66a22.67,22.67,0,0,1,22.67,22.67v17.56a32.32,32.32,0,0,1-32.32,32.32h-5.53a23,23,0,0,1-23-23v-27A22.53,22.53,0,0,1,315.08,202.93Z" transform="translate(562.19 -83.78) rotate(90)"/></g><g id="Yu"><path class="cls-2" d="M93.54,213.22l27.33.27a8.72,8.72,0,0,0,8.82-8.73l-.22-99.18c-.06-22.09-6.61-39.63-23.12-49.1l-64-41.62A8.78,8.78,0,0,0,31.2,18L15.47,42.2c-2.41,3.71-1.89,9.29,1.93,11.53L72,86.64C79.41,91,85,97.55,85,106.13l.07,98C85.07,209,88.6,213.18,93.54,213.22Z"/><path class="cls-2" d="M174.9,213.44l-27.32.27a8.71,8.71,0,0,1-8.82-8.73L139,105.8c.06-22.09,6.6-39.64,23.11-49.11l64-41.61a8.76,8.76,0,0,1,11.13,3.12L253,42.42c2.41,3.71,1.89,9.29-1.93,11.52L196.44,86.86c-7.4,4.33-12.95,10.91-12.95,19.49l-.07,98C183.37,209.22,179.85,213.39,174.9,213.44Z"/><path class="cls-2" d="M202.21,101h26.55a8.82,8.82,0,0,1,8.82,8.82v94.89a8.8,8.8,0,0,1-8.8,8.8H210.55a17.91,17.91,0,0,1-17.91-17.91v-85A9.56,9.56,0,0,1,202.21,101Z"/><path class="cls-2" d="M256.27,101.17h26.55a8.82,8.82,0,0,1,8.82,8.82v94.89a8.8,8.8,0,0,1-8.8,8.8H255.74a9,9,0,0,1-9-9V110.74A9.56,9.56,0,0,1,256.27,101.17Z"/><path class="cls-2" d="M318.68,101h18.23a8.82,8.82,0,0,1,8.82,8.82v94.89a8.8,8.8,0,0,1-8.8,8.8H318.68a17.89,17.89,0,0,1-17.89-17.89V118.84A17.89,17.89,0,0,1,318.68,101Z"/><path class="cls-2" d="M365.75,100.79h23.39a10.34,10.34,0,0,1,10.34,10.34v126.2a18.05,18.05,0,0,1-18.05,18.05h-16.3a10.58,10.58,0,0,1-10.58-10.58V112A11.21,11.21,0,0,1,365.75,100.79Z"/><path class="cls-2" d="M426.46,101.12h18.36a8.82,8.82,0,0,1,8.82,8.82v94.89a8.8,8.8,0,0,1-8.8,8.8H426.59a17.89,17.89,0,0,1-17.89-17.89V118.87A17.75,17.75,0,0,1,426.46,101.12Z"/><path class="cls-2" d="M472.27,100.62h17.37a18,18,0,0,1,18,18v76.54a18,18,0,0,1-18,18H471.74a9,9,0,0,1-9-9V110.18A9.56,9.56,0,0,1,472.27,100.62Z"/><path class="cls-2" d="M309.7,222.78h27a8.53,8.53,0,0,1,8.53,8.53V247a8.67,8.67,0,0,1-8.67,8.67H319a18.32,18.32,0,0,1-18.32-18.32v-5.53A9,9,0,0,1,309.7,222.78Z"/><path class="cls-2" d="M93.54,213.22l27.33.27a8.72,8.72,0,0,0,8.82-8.73l-.22-99.18c-.06-22.09-6.61-39.63-23.12-49.1l-64-41.62A8.78,8.78,0,0,0,31.2,18L15.47,42.2c-2.41,3.71-1.89,9.29,1.93,11.53L72,86.64C79.41,91,85,97.55,85,106.13l.07,98C85.07,209,88.6,213.18,93.54,213.22Z"/><path class="cls-2" d="M174.9,213.44l-27.32.27a8.71,8.71,0,0,1-8.82-8.73L139,105.8c.06-22.09,6.6-39.64,23.11-49.11l64-41.61a8.76,8.76,0,0,1,11.13,3.12L253,42.42c2.41,3.71,1.89,9.29-1.93,11.52L196.44,86.86c-7.4,4.33-12.95,10.91-12.95,19.49l-.07,98C183.37,209.22,179.85,213.39,174.9,213.44Z"/><path class="cls-2" d="M202.21,101h26.55a8.82,8.82,0,0,1,8.82,8.82v94.89a8.8,8.8,0,0,1-8.8,8.8H210.55a17.91,17.91,0,0,1-17.91-17.91v-85A9.56,9.56,0,0,1,202.21,101Z"/><path class="cls-2" d="M256.27,101.17h26.55a8.82,8.82,0,0,1,8.82,8.82v94.89a8.8,8.8,0,0,1-8.8,8.8H255.74a9,9,0,0,1-9-9V110.74A9.56,9.56,0,0,1,256.27,101.17Z"/><path class="cls-2" d="M318.68,101h18.23a8.82,8.82,0,0,1,8.82,8.82v94.89a8.8,8.8,0,0,1-8.8,8.8H318.68a17.89,17.89,0,0,1-17.89-17.89V118.84A17.89,17.89,0,0,1,318.68,101Z"/><path class="cls-2" d="M365.75,100.79h23.39a10.34,10.34,0,0,1,10.34,10.34v126.2a18.05,18.05,0,0,1-18.05,18.05h-16.3a10.58,10.58,0,0,1-10.58-10.58V112A11.21,11.21,0,0,1,365.75,100.79Z"/><path class="cls-2" d="M426.46,101.12h18.36a8.82,8.82,0,0,1,8.82,8.82v94.89a8.8,8.8,0,0,1-8.8,8.8H426.59a17.89,17.89,0,0,1-17.89-17.89V118.87A17.75,17.75,0,0,1,426.46,101.12Z"/><path class="cls-2" d="M472.27,100.62h17.37a18,18,0,0,1,18,18v76.54a18,18,0,0,1-18,18H471.74a9,9,0,0,1-9-9V110.18A9.56,9.56,0,0,1,472.27,100.62Z"/><path class="cls-2" d="M309.7,222.78h27a8.53,8.53,0,0,1,8.53,8.53V247a8.67,8.67,0,0,1-8.67,8.67H319a18.32,18.32,0,0,1-18.32-18.32v-5.53A9,9,0,0,1,309.7,222.78Z"/></g></g></svg>