<svg width="1440" height="916" viewBox="0 0 1440 916" fill="none" xmlns="http://www.w3.org/2000/svg">
<g clip-path="url(#clip0_168_2786)">
<g clip-path="url(#clip1_168_2786)">
<path d="M47.9308 447.443C37.7701 432.052 31.843 413.705 31.843 393.993C31.843 372.992 38.5398 353.508 49.8552 337.587C35.8457 321.287 27.3784 300.134 27.3784 277.011C27.3784 247.443 41.234 221.059 62.864 204.001C57.2448 191.188 54.0888 177.086 54.0888 162.302C54.0888 104.759 100.89 58.1327 158.698 58.1327C159.16 58.1327 159.622 58.1327 160.084 58.1327C159.776 54.8726 159.622 51.6126 159.622 48.3525C159.622 -9.19105 206.423 -55.8173 264.231 -55.8173C322.04 -55.8173 368.841 -9.19105 368.841 48.3525C368.841 50.9303 368.687 53.508 368.533 56.0857C382.542 51.3093 397.629 48.7316 413.255 48.7316C465.675 48.7316 511.322 77.693 534.953 120.377C537.647 117.344 540.495 114.387 543.42 111.658C507.319 92.6285 482.687 54.8726 482.687 11.3548C482.687 -19.5777 495.157 -47.5535 515.324 -68.0235C489.23 -75.9083 467.446 -93.7248 454.36 -117H970.633C970.556 -116.621 970.556 -116.242 970.479 -115.863C1017.82 -109.267 1054.3 -68.7817 1054.3 -19.8052C1054.3 30.1569 1016.43 71.2487 967.631 76.6315C991.647 84.8196 1008.97 107.412 1008.97 134.099C1008.97 167.685 981.64 194.903 947.925 194.903C924.987 194.903 904.973 182.242 894.581 163.591C871.489 202.257 829.152 228.186 780.735 228.186C769.804 228.186 759.105 226.821 748.944 224.319C744.095 250.02 731.163 272.917 712.92 290.278C723.081 312.871 728.777 337.89 728.777 364.274C728.777 464.274 647.414 545.244 547.038 545.244C538.648 545.244 530.488 544.638 522.406 543.576C509.089 564.729 485.304 578.83 458.209 578.83C442.814 578.83 428.573 574.281 416.642 566.472C384.313 615.676 328.429 648.277 265.001 648.277C226.821 648.277 191.413 636.45 162.239 616.434C162.239 617.496 162.316 618.557 162.316 619.619C162.316 722.954 78.1821 806.73 -25.5805 806.73C-43.4388 806.73 -60.6043 804.228 -77 799.603V439.71C-60.6813 435.085 -43.4388 432.583 -25.5805 432.583C0.514057 432.583 25.3771 437.89 47.9308 447.443Z" fill="#C4E4E3"/>
<path d="M728.315 -43.0804C718.693 -59.7597 713.228 -79.0167 713.228 -99.6384C713.228 -105.552 713.689 -111.314 714.536 -117H768.265C768.265 -116.166 768.188 -115.332 768.188 -114.498C768.188 -98.956 771.421 -84.1721 777.04 -70.6012C794.129 -75.3017 812.603 -76.0599 831 -72.1933C764.801 -60.2146 714.613 -2.51933 714.613 66.8514C714.613 84.5921 717.923 101.65 723.927 117.268C697.987 89.7475 686.363 50.0963 696.447 10.8241C702.066 -10.5557 713.382 -28.903 728.315 -43.0804ZM907.59 90.7331C897.506 110.597 898.122 135.161 911.439 155.1C928.681 180.953 961.473 190.278 989.261 178.982C978.407 188.914 963.936 194.979 948.079 194.979C925.14 194.979 905.127 182.318 894.735 163.667C892.503 167.382 890.117 170.87 887.577 174.357C871.72 145.775 880.11 109.459 907.59 90.7331ZM510.86 -110.48C513.631 -112.754 516.556 -114.953 519.558 -117H648.03C659.268 -109.418 669.044 -99.8658 676.895 -88.8726C662.116 -94.862 646.028 -98.1979 629.094 -98.1979C575.596 -98.1979 529.873 -65.2942 511.168 -18.7437C529.257 -39.0622 555.582 -51.9507 584.91 -52.254C554.582 -35.044 534.029 -2.59515 534.029 34.63C534.029 89.8233 578.983 134.554 634.328 134.554C634.713 134.554 635.175 134.554 635.56 134.554C620.934 142.818 604.077 147.594 586.065 147.594C579.907 147.594 573.826 146.988 567.975 145.926C553.658 159.801 544.729 179.133 544.729 200.589C544.729 242.666 578.983 276.783 621.242 276.783C621.55 276.783 621.858 276.783 622.243 276.783C611.082 283.076 598.227 286.715 584.525 286.715C542.266 286.715 508.012 252.598 508.012 210.521C508.012 180.043 526.024 153.811 551.965 141.681C520.559 130.309 496.388 103.773 488.537 70.9454C507.781 83.3791 523.792 100.362 534.953 120.453C537.647 117.42 540.495 114.463 543.42 111.734C515.247 96.95 494.156 70.6421 486.151 39.1789C486.228 38.4966 486.305 37.8142 486.382 37.2077C485.997 36.6012 485.612 35.9947 485.227 35.3882C483.534 27.655 482.687 19.6945 482.687 11.5064C482.687 -19.4261 495.157 -47.4018 515.324 -67.8719C489.23 -75.7566 467.446 -93.5732 454.36 -116.848H507.396C508.55 -114.801 509.705 -112.603 510.86 -110.48ZM-25.5037 432.583C-9.49283 432.583 6.05617 434.63 20.9124 438.345C30.2264 440.695 39.2325 443.728 47.9307 447.443C43.5431 440.847 40.0023 433.644 37.3851 425.987C33.8442 415.98 31.9199 405.214 31.9199 393.917C31.9199 372.917 38.6167 353.432 49.9321 337.511C35.8456 321.287 27.3783 300.134 27.3783 277.011C27.3783 247.443 41.2339 221.059 62.8639 204.001C57.2447 191.188 54.0887 177.086 54.0887 162.302C54.0887 104.759 100.89 58.1327 158.698 58.1327C159.16 58.1327 159.622 58.1327 160.084 58.1327C159.776 54.8726 159.622 51.6126 159.622 48.3525C159.622 -9.19105 206.423 -55.8173 264.231 -55.8173C270.081 -55.8173 275.854 -55.2866 281.474 -54.3768C247.604 -49.6005 216.122 -30.4951 196.801 0.816521C185.024 19.8461 179.481 40.771 179.25 61.6202C181.021 62.5299 182.791 63.4397 184.485 64.4253C146.305 63.6672 108.895 82.7726 87.9578 117.799C73.9483 141.226 69.7917 167.837 74.2562 192.704C92.4994 186.184 112.898 185.35 132.757 191.719C101.736 197.784 74.7181 219.77 63.9416 251.84C58.3993 268.368 57.9375 285.426 61.6323 301.271C71.4851 296.268 82.0307 292.628 92.9612 290.506C94.6547 283.227 97.5028 276.101 101.736 269.429C113.437 251.006 132.526 240.089 152.694 237.89C154.234 227.731 157.928 217.723 163.778 208.474C186.563 172.689 234.134 161.999 270.158 184.668C270.466 184.82 270.697 185.047 271.005 185.199C272.083 183.076 273.314 180.953 274.623 178.906C297.407 143.121 344.978 132.431 381.003 155.1C384.62 157.375 388.007 159.952 391.163 162.757C368.225 152.447 340.975 151.992 316.651 163.895C301.795 171.097 290.018 182.014 281.705 194.827C282.474 196.04 283.167 197.329 283.86 198.618C260.382 183.152 229.515 180.346 202.651 193.993C184.639 203.091 171.553 218.027 164.471 235.237C178.404 238.345 191.413 245.851 201.265 257.526C179.558 249.111 154.003 252.219 134.682 267.913C127.446 273.751 121.827 280.801 117.747 288.535C128.216 288.838 138.685 290.581 149.153 293.917C110.05 301.575 76.1036 329.247 62.556 369.581C50.3939 405.744 57.4756 443.652 78.259 472.386C76.2576 432.507 95.4244 392.78 131.757 370.111C112.436 404.835 111.897 448.504 134.066 484.82C167.011 538.572 237.444 555.555 291.403 522.727C291.788 522.5 292.173 522.196 292.635 521.969C283.321 538.648 269.773 553.28 252.223 563.895C239.984 571.324 226.821 576.177 213.504 578.679C247.758 628.11 315.189 642.894 367.301 611.203C367.686 610.976 368.071 610.672 368.533 610.445C366.685 613.781 364.53 617.041 362.375 620.225C334.279 638.042 300.948 648.428 265.155 648.428C234.365 648.428 205.345 640.771 179.943 627.2C176.633 623.182 173.631 618.936 170.86 614.463C163.086 601.802 158.159 588.307 155.85 574.509C131.372 566.245 109.511 549.717 95.0395 525.987C92.4994 521.893 90.3441 517.647 88.4197 513.402C84.9558 512.568 81.4919 511.658 78.105 510.521C46.4682 499.983 22.5289 476.935 9.98191 448.807C-1.02555 459.801 -10.5705 472.234 -18.4989 485.729C-36.896 479.361 -56.3707 475.267 -76.6152 473.751V439.785C-60.6044 435.085 -43.3619 432.583 -25.5037 432.583Z" fill="#FFF4D3"/>
<path d="M1493.37 47.5945V616.662C1491.14 616.207 1488.83 615.752 1486.67 615.221C1481.83 640.923 1468.89 623.94 1450.65 641.378C1460.81 663.971 1466.51 688.99 1466.51 715.297C1466.51 815.297 1385.14 896.268 1284.77 896.268C1245.13 896.268 1208.49 883.607 1178.62 862.151C1173.85 881.56 1165.84 899.755 1155.3 916.131H532.336C555.736 839.406 627.323 783.531 712.073 783.531C738.168 783.531 762.954 788.838 785.507 798.391C775.347 783 769.42 764.653 769.42 744.941C769.42 723.94 776.116 704.456 787.432 688.535C773.422 672.234 764.955 651.082 764.955 627.958C764.955 598.391 778.811 572.007 800.441 554.949C794.821 542.212 791.665 528.11 791.665 513.25C791.665 455.707 838.466 409.08 896.275 409.08C896.737 409.08 897.198 409.08 897.66 409.156C897.352 405.896 897.199 402.636 897.199 399.376C897.199 341.833 944.076 295.206 1001.81 295.206C1059.62 295.206 1106.42 341.833 1106.42 399.376C1106.42 401.954 1106.26 404.532 1106.11 407.109C1120.12 402.333 1135.21 399.755 1150.83 399.755C1203.25 399.755 1248.9 428.717 1272.53 471.4C1275.22 468.368 1278.07 465.411 1281 462.682C1244.9 443.652 1220.26 405.896 1220.26 362.378C1220.26 331.446 1232.73 303.47 1252.9 283C1209.95 270.036 1178.7 230.309 1178.7 183.303C1178.7 136.525 1209.64 96.95 1252.21 83.834C1247.59 72.7651 1244.97 60.6347 1244.97 47.8977C1245.13 -3.65648 1286.92 -45.3547 1338.57 -45.3547C1360.36 -45.3547 1380.45 -37.9249 1396.31 -25.4154C1413.01 -31.6322 1431.1 -34.9681 1450.03 -34.9681C1465.12 -34.9681 1479.59 -32.7694 1493.37 -28.7512V47.5945Z" fill="#C4E4E3"/>
<path d="M712.073 783.531C728.084 783.531 743.633 785.578 758.489 789.293C767.803 791.643 776.809 794.676 785.507 798.391C781.12 791.795 777.579 784.592 774.962 776.935C771.421 766.927 769.497 756.162 769.497 744.865C769.497 723.864 776.193 704.38 787.509 688.459C773.499 672.159 765.032 651.006 765.032 627.883C765.032 598.315 778.888 571.931 800.518 554.873C794.898 542.136 791.742 528.034 791.742 513.174C791.742 455.631 838.543 409.005 896.352 409.005C896.814 409.005 897.275 409.005 897.737 409.08C897.429 405.82 897.275 402.56 897.275 399.3C897.275 341.757 944.153 295.13 1001.88 295.13C1007.73 295.13 1013.51 295.661 1019.13 296.571C985.258 301.347 953.775 320.453 934.455 351.764C922.677 370.794 917.135 391.719 916.904 412.568C918.675 413.478 920.445 414.387 922.139 415.373C883.959 414.615 846.549 433.72 825.612 468.747C811.602 492.174 807.445 518.785 811.91 543.652C830.153 537.132 850.551 536.298 870.411 542.666C839.39 548.732 812.372 570.718 801.595 602.788C796.053 619.315 795.591 636.374 799.286 652.219C809.139 647.14 819.684 643.576 830.615 641.453C832.308 634.175 835.156 627.049 839.39 620.377C851.09 601.954 870.18 591.036 890.348 588.838C891.887 578.679 895.505 568.671 901.432 559.422C924.217 523.637 971.787 512.947 1007.81 535.616C1008.12 535.767 1008.35 535.995 1008.66 536.146C1009.74 534.024 1010.97 531.901 1012.28 529.854C1035.06 494.069 1082.63 483.379 1118.66 506.048C1122.27 508.322 1125.66 510.9 1128.82 513.705C1105.88 503.394 1078.63 502.939 1054.23 514.842C1039.37 522.045 1027.59 532.962 1019.28 545.775C1020.05 546.988 1020.74 548.277 1021.44 549.566C997.959 534.099 967.092 531.294 940.228 544.941C922.215 554.039 909.13 568.974 902.048 586.184C915.981 589.293 928.989 596.798 938.842 608.55C917.135 600.134 891.579 603.243 872.259 618.936C865.023 624.774 859.404 631.825 855.324 639.558C865.716 639.861 876.261 641.605 886.73 644.941C847.626 652.598 813.68 680.271 800.133 720.604C787.971 756.768 795.052 794.676 815.836 823.409C813.834 783.531 833.001 743.804 869.334 721.135C850.013 755.858 849.474 799.604 871.643 835.843C904.588 889.596 975.02 906.579 1028.98 873.751C1029.36 873.523 1029.75 873.22 1030.21 872.993C1020.9 889.672 1007.35 904.304 989.8 914.918C989.03 915.373 988.26 915.828 987.49 916.207H872.874C856.864 906.958 842.854 893.766 832.539 876.935C829.999 872.841 827.844 868.595 825.919 864.35C822.456 863.516 818.992 862.606 815.605 861.469C783.968 850.93 760.029 827.883 747.482 799.755C717.23 829.93 697.679 870.794 695.062 916.207H532.336C555.736 839.406 627.323 783.531 712.073 783.531ZM1252.29 83.6824C1247.67 72.6134 1245.05 60.483 1245.05 47.7461C1245.13 -3.65648 1286.92 -45.3547 1338.57 -45.3547C1340.04 -45.3547 1341.5 -45.2031 1342.96 -45.2031C1304.78 -18.1371 1279.92 26.2904 1279.92 76.5558C1279.92 77.9963 1280 79.361 1280.07 80.8014C1284.15 82.1661 1288.08 83.6824 1291.93 85.4262C1288.08 87.6248 1284.38 90.0509 1280.84 92.6286C1283 112.492 1288.93 131.143 1298.09 147.898C1282.23 140.165 1268.45 128.792 1257.67 114.994C1242.74 134.251 1233.81 158.36 1233.81 184.592C1233.81 204.911 1239.2 223.864 1248.51 240.392C1268.3 224.016 1293.77 214.236 1321.49 214.236C1359.9 214.236 1393.84 233.114 1414.63 261.999C1399.85 256.01 1383.76 252.674 1366.82 252.674C1313.33 252.674 1267.6 285.578 1248.9 332.128C1266.99 311.81 1293.31 298.921 1322.64 298.618C1292.31 315.828 1271.76 348.277 1271.76 385.502C1271.76 440.695 1316.71 485.426 1372.06 485.426C1372.52 485.426 1372.91 485.426 1373.29 485.426C1358.66 493.69 1341.81 498.466 1323.8 498.466C1317.64 498.466 1311.56 497.86 1305.71 496.798C1291.39 510.673 1282.46 530.005 1282.46 551.461C1282.46 593.538 1316.71 627.655 1358.97 627.655C1359.28 627.655 1359.59 627.655 1359.97 627.655C1348.81 633.948 1335.96 637.587 1322.26 637.587C1280 637.587 1245.74 603.47 1245.74 561.393C1245.74 530.915 1263.75 504.683 1289.7 492.553C1258.29 481.181 1234.12 454.645 1226.27 421.817C1245.51 434.251 1261.52 451.234 1272.68 471.325C1275.38 468.292 1278.23 465.335 1281.15 462.606C1252.98 447.822 1231.89 421.514 1223.88 390.051C1223.96 389.369 1224.04 388.686 1224.11 388.08C1223.73 387.473 1223.27 386.867 1222.96 386.26C1221.26 378.527 1220.42 370.566 1220.42 362.378C1220.42 331.446 1232.89 303.47 1253.06 283C1210.1 270.036 1178.85 230.309 1178.85 183.303C1178.77 136.45 1209.72 96.8742 1252.29 83.6824ZM1465.89 307.867C1456.27 291.188 1450.8 271.931 1450.8 251.309C1450.8 215.525 1467.43 183.531 1493.37 162.682V318.406C1467.97 343.955 1452.27 379.058 1452.27 417.799C1452.27 435.616 1455.58 452.598 1461.58 468.216C1435.72 440.695 1424.02 401.044 1434.1 361.772C1439.72 340.392 1450.96 322.045 1465.89 307.867Z" fill="#FFF4D3"/>
</g>
</g>
<defs>
<clipPath id="clip0_168_2786">
<rect width="1440" height="916" fill="white"/>
</clipPath>
<clipPath id="clip1_168_2786">
<rect width="1507" height="2046" fill="white" transform="translate(-13 -117)"/>
</clipPath>
</defs>
</svg>
